# xmcd
#
# Track frame offsets:
#	150
#	18373
#	35695
#	53040
#	72559
#	90677
#	108642
#	126809
#	142645
#	160372
#	179263
#	193633
#	212903
#	231606
#	247415
#	266308
#
# Disc length: 3765 seconds
#
# Revision: 2
# Processed by: cddbd v1.5.2PL0 Copyright (c) Steve Scherf et al.
# Submitted via: audiograbber 1.83.01
#
DISCID=ef0eb310
DTITLE=Various Artist - Barnburners - Today's Hot Country KB34812
DYEAR=2005
DGENRE=Karaoke
TTITLE0=Faith Hill - Mississippi Girl
TTITLE1=Tim McGraw - Do You Want Fries With That
TTITLE2=Shania Twain - Party For Two
TTITLE3=Billy Carrington - Must Be Doing Something Right
TTITLE4=Toby Keith - As Good As I Once Was
TTITLE5=Keith Urban - Days Go By
TTITLE6=Terri Clark - The World Needs A Drink
TTITLE7=Gretchen Wilson - Homewrecker
TTITLE8=Dierks Bentley - Lot Of Leavin' Left To Do
TTITLE9=Reba McEntire - My Sister
TTITLE10=Keith Anderson - Pickin' Wildflowers
TTITLE11=Keith Urban - Making Memories of Us
TTITLE12=Shania Twain - Don't
TTITLE13=Buddy Jewell - If She Were Any Other Woman
TTITLE14=Gretchen Wilson - When I Think About Cheatin'
TTITLE15=Trace Adkins - Songs About Me
EXTD=
EXTT0=
EXTT1=
EXTT2=
EXTT3=
EXTT4=
EXTT5=
EXTT6=
EXTT7=
EXTT8=
EXTT9=
EXTT10=
EXTT11=
EXTT12=
EXTT13=
EXTT14=
EXTT15=
PLAYORDER=
